<svg viewBox="0 0 50 50" fill="none" xmlns="http://www.w3.org/2000/svg">
  <defs>
    <linearGradient id="favicon-grad" x1="0%" y1="0%" x2="100%" y2="100%">
      <stop offset="0%" stopColor="#e3000f" />
      <stop offset="100%" stopColor="#8d000a" />
    </linearGradient>
  </defs>
  <circle cx="25" cy="25" r="24" fill="url(#favicon-grad)" />
  <circle cx="25" cy="25" r="21.5" stroke="white" strokeWidth="0.8" fill="none" opacity="0.6" />
  <g fill="white" transform="translate(25, 25)">
    <path d="M -2.5,-14 L 2.5,-14 L 2.5,2.5 L 14.5,2.5 L 14.5,6.5 L -2.5,6.5 Z" transform="rotate(0) translate(0, 1.5)" />
    <path d="M -2.5,-14 L 2.5,-14 L 2.5,2.5 L 14.5,2.5 L 14.5,6.5 L -2.5,6.5 Z" transform="rotate(120) translate(0, 1.5)" />
    <path d="M -2.5,-14 L 2.5,-14 L 2.5,2.5 L 14.5,2.5 L 14.5,6.5 L -2.5,6.5 Z" transform="rotate(240) translate(0, 1.5)" />
    <path d="M 0,-3.5 L 4,2.5 L -4,2.5 Z" fill="url(#favicon-grad)" />
  </g>
</svg>
